<svg width="30" height="30" viewBox="0 0 30 30" fill="none" xmlns="http://www.w3.org/2000/svg">
<path d="M29.9428 21.4293C29.7443 20.8185 29.0883 20.4846 28.4774 20.6827L26.9652 21.174C27.8916 19.2581 28.3768 17.1514 28.3768 15C28.3768 7.17653 22.012 0.811668 14.1884 0.811668C6.36486 0.811668 0 7.17653 0 15C0 22.8236 6.36486 29.1884 14.1884 29.1884C14.8306 29.1884 15.3514 28.6677 15.3514 28.0254C15.3514 27.3833 14.8306 26.8625 14.1884 26.8625C7.6474 26.8625 2.32596 21.5411 2.32596 15C2.32596 8.45906 7.6474 3.13763 14.1884 3.13763C20.7295 3.13763 26.0508 8.45906 26.0508 15C26.0508 16.8024 25.6441 18.5669 24.8671 20.17L24.3504 18.5794C24.152 17.9687 23.4958 17.6345 22.8851 17.8328C22.2742 18.0313 21.9398 18.6874 22.1382 19.2982L23.5096 23.5192C23.6692 24.0107 24.1251 24.3233 24.6154 24.3233C24.7344 24.3233 24.8556 24.3048 24.975 24.2661L29.1961 22.8949C29.8069 22.6964 30.1412 22.0404 29.9428 21.4293Z" fill="#00703C"/>
</svg>
