<svg width="70" height="54" viewBox="0 0 70 54" fill="none" xmlns="http://www.w3.org/2000/svg">
<g filter="url(#filter0_d)">
<path d="M60 10.3331H10V43.6668H60V10.3331Z" fill="#F0F0F0"/>
<path d="M60 14.4994H10V18.6657H60V14.4994Z" fill="#D80027"/>
<path d="M60 22.8331H10V26.9994H60V22.8331Z" fill="#D80027"/>
<path d="M60 31.1657H10V35.332H60V31.1657Z" fill="#D80027"/>
<path d="M60 39.4994H10V43.6657H60V39.4994Z" fill="#D80027"/>
<path d="M35 10.3331H10V28.282H35V10.3331Z" fill="#2E52B2"/>
<path d="M19.7482 17.6859L19.3456 18.9246H18.0432L19.097 19.6898L18.6944 20.9283L19.7482 20.1632L20.8013 20.9283L20.3988 19.6898L21.4526 18.9246H20.1501L19.7482 17.6859Z" fill="#F0F0F0"/>
<path d="M20.1501 23.3945L19.7482 22.156L19.3456 23.3945H18.0432L19.097 24.1598L18.6944 25.3984L19.7482 24.6331L20.8013 25.3984L20.3988 24.1598L21.4526 23.3945H20.1501Z" fill="#F0F0F0"/>
<path d="M14.6462 23.3945L14.2441 22.156L13.8415 23.3945H12.5391L13.5929 24.1598L13.1903 25.3984L14.2441 24.6331L15.2973 25.3984L14.8948 24.1598L15.9484 23.3945H14.6462Z" fill="#F0F0F0"/>
<path d="M14.2441 17.6859L13.8415 18.9246H12.5391L13.5929 19.6898L13.1903 20.9283L14.2441 20.1632L15.2973 20.9283L14.8948 19.6898L15.9484 18.9246H14.6462L14.2441 17.6859Z" fill="#F0F0F0"/>
<path d="M19.7482 13.2158L19.3456 14.4546H18.0432L19.097 15.2198L18.6944 16.4584L19.7482 15.6932L20.8013 16.4584L20.3988 15.2198L21.4526 14.4546H20.1501L19.7482 13.2158Z" fill="#F0F0F0"/>
<path d="M14.2441 13.2158L13.8415 14.4546H12.5391L13.5929 15.2198L13.1903 16.4584L14.2441 15.6932L15.2973 16.4584L14.8948 15.2198L15.9484 14.4546H14.6462L14.2441 13.2158Z" fill="#F0F0F0"/>
<path d="M25.2522 17.6859L24.8497 18.9246H23.5474L24.6011 19.6898L24.1986 20.9283L25.2522 20.1632L26.3056 20.9283L25.9029 19.6898L26.9567 18.9246H25.6544L25.2522 17.6859Z" fill="#F0F0F0"/>
<path d="M25.6544 23.3945L25.2522 22.156L24.8497 23.3945H23.5474L24.6011 24.1598L24.1986 25.3984L25.2522 24.6331L26.3056 25.3984L25.9029 24.1598L26.9567 23.3945H25.6544Z" fill="#F0F0F0"/>
<path d="M31.1584 23.3945L30.7564 22.156L30.3538 23.3945H29.0515L30.1051 24.1598L29.7026 25.3984L30.7564 24.6331L31.8096 25.3984L31.407 24.1598L32.4608 23.3945H31.1584Z" fill="#F0F0F0"/>
<path d="M30.7564 17.6859L30.3538 18.9246H29.0515L30.1051 19.6898L29.7026 20.9283L30.7564 20.1632L31.8096 20.9283L31.407 19.6898L32.4608 18.9246H31.1584L30.7564 17.6859Z" fill="#F0F0F0"/>
<path d="M25.2522 13.2158L24.8497 14.4546H23.5474L24.6011 15.2198L24.1986 16.4584L25.2522 15.6932L26.3056 16.4584L25.9029 15.2198L26.9567 14.4546H25.6544L25.2522 13.2158Z" fill="#F0F0F0"/>
<path d="M30.7564 13.2158L30.3538 14.4546H29.0515L30.1051 15.2198L29.7026 16.4584L30.7564 15.6932L31.8096 16.4584L31.407 15.2198L32.4608 14.4546H31.1584L30.7564 13.2158Z" fill="#F0F0F0"/>
</g>
<defs>
<filter id="filter0_d" x="0" y="-8" width="70" height="70" filterUnits="userSpaceOnUse" color-interpolation-filters="sRGB">
<feFlood flood-opacity="0" result="BackgroundImageFix"/>
<feColorMatrix in="SourceAlpha" type="matrix" values="0 0 0 0 0 0 0 0 0 0 0 0 0 0 0 0 0 0 127 0"/>
<feOffset/>
<feGaussianBlur stdDeviation="5"/>
<feColorMatrix type="matrix" values="0 0 0 0 0 0 0 0 0 0 0 0 0 0 0 0 0 0 0.3 0"/>
<feBlend mode="normal" in2="BackgroundImageFix" result="effect1_dropShadow"/>
<feBlend mode="normal" in="SourceGraphic" in2="effect1_dropShadow" result="shape"/>
</filter>
</defs>
</svg>
